# xmcd
#
# Track frame offsets: 
#        150
#        12320
#        25803
#        34928
#        50928
#        59038
#        70270
#        79443
#        86446
#        97110
#        103254
#        118159
#        128839
#        136750
#        148305
#        165903
#        168783
#        179776
#        185050
#        192343
#        205968
#        211812
#        221630
#        231788
#        234401
#        239186
#        248571
#        258457
#        264411
#        273154
#        281685
#        289810
#        299485
#
# Disc length: 4254 seconds
#
# Revision: 0
# Processed by: cddbd v1.5.2PL0 Copyright (c) Steve Scherf et al.
# Submitted via: ExactAudioCopyFreeDBPlugin 1.0
#
DISCID=10109c21
DTITLE=Various Artist - 日本の名歌DISC4
DYEAR=2006
DGENRE=Country
TTITLE0=伊藤　京子 - 花のまち
TTITLE1=伊藤　京子 - 花季
TTITLE2=伊藤　京子 - 紫陽花
TTITLE3=伊藤　京子 - 藤の花
TTITLE4=伊藤　京子 - はる
TTITLE5=伊藤　京子 - 旅上
TTITLE6=本宮　寛子 - 故郷
TTITLE7=本宮　寛子 - わかば
TTITLE8=中村　邦子 - おぼろ月夜
TTITLE9=本宮　寛子 - 夏は来ぬ
TTITLE10=中村　邦子 - 里の秋
TTITLE11=本宮　寛子 - 冬の夜
TTITLE12=畑　儀文 - スキー
TTITLE13=立川　清登 - 四季の歌
TTITLE14=中村　邦子 - 月の砂漠
TTITLE15=斉藤　昌子 - 鳩ぽっぽ
TTITLE16=斉藤　昌子 - 赤い靴
TTITLE17=斉藤　昌子 - 七つの子
TTITLE18=木村　宏子 - 十五夜お月さん
TTITLE19=中沢　桂 - 花嫁人形
TTITLE20=斉藤　昌子 - 青い目の人形
TTITLE21=伊藤　京子 - かなりや
TTITLE22=斉藤　昌子 - あわて床屋
TTITLE23=中村　邦子 - 酸模の咲くころ
TTITLE24=斉藤　昌子 - 海坊主小坊主
TTITLE25=伊藤　京子 - おかあさん
TTITLE26=中村　邦子 - 夕方のおかあさん
TTITLE27=斉藤　昌子 - サッちゃん
TTITLE28=澤畑　恵美 - あめふり　くまのこ
TTITLE29=吉田　浩之 - おはなし　ゆびさん
TTITLE30=松本　美和子 - ゆりかご
TTITLE31=松本　美和子 - ねむの木の子守唄
TTITLE32=伊藤　京子 - 子守歌
EXTD=
EXTT0=
EXTT1=
EXTT2=
EXTT3=
EXTT4=
EXTT5=
EXTT6=
EXTT7=
EXTT8=
EXTT9=
EXTT10=
EXTT11=
EXTT12=
EXTT13=
EXTT14=
EXTT15=
EXTT16=
EXTT17=
EXTT18=
EXTT19=
EXTT20=
EXTT21=
EXTT22=
EXTT23=
EXTT24=
EXTT25=
EXTT26=
EXTT27=
EXTT28=
EXTT29=
EXTT30=
EXTT31=
EXTT32=
PLAYORDER=
